<?xml version="1.0" encoding="utf-8"?>
<!-- Generator: Adobe Illustrator 28.0.0, SVG Export Plug-In . SVG Version: 6.00 Build 0)  -->
<svg version="1.1" id="Слой_1" xmlns="http://www.w3.org/2000/svg" xmlns:xlink="http://www.w3.org/1999/xlink" x="0px" y="0px"
	 viewBox="0 0 1000 594.4039307" enable-background="new 0 0 1000 594.4039307" xml:space="preserve">
<path fill="#252F3E" d="M841.2248535,310.7547607c-17.2943115,0-34.5886841-1.983551-51.2184448-5.9506836
	c-16.6297607-3.9668274-29.6004028-8.264679-38.2478638-13.2234497c-5.3215332-2.9754944-8.9801025-6.2811279-10.3104858-9.2566223
	c-1.3303833-2.9751892-1.9955444-6.2811279-1.9955444-9.2566223v-16.8601379c0-6.9423065,2.6607666-10.2482452,7.6496582-10.2482452
	c1.9956055,0,3.9911499,0.3307495,5.9867554,0.9919434c1.9955444,0.6611786,4.9888916,1.9835663,8.3148804,3.3059387
	c11.3076172,4.9587555,23.6136475,8.9258881,36.5848999,11.5706329c13.3031616,2.6447449,26.2744141,3.9671021,39.5776367,3.9671021
	c20.9534912,0,37.250061-3.6363525,48.5582886-10.9094238c11.3082886-7.2730713,17.2943726-17.852066,17.2943726-31.4062653
	c0-9.2563171-2.9933472-16.8598175-8.9794312-23.1412506c-5.9867554-6.2811279-17.2949829-11.901062-33.5915527-17.190567
	l-48.225769-14.8765717c-24.2788086-7.6035004-42.2390137-18.843689-53.2140503-33.7202606
	c-10.975647-14.5461197-16.6297607-30.7450638-16.6297607-47.9356308c0-13.8846283,2.9933472-26.1164474,8.9801025-36.695446
	c5.986084-10.5790024,13.9683838-19.8353214,23.946228-27.1083832c9.9779053-7.6035032,21.2855225-13.223752,34.5893555-17.1905689
	C823.59729,1.6531229,837.5663452,0,852.2005615,0c7.3170776,0,14.9661255,0.3307478,22.2832642,1.3223752
	c7.6496582,0.9919354,14.6342163,2.3143106,21.618103,3.6366854c6.6519165,1.6528149,12.9711914,3.3056297,18.9579468,5.2895002
	c5.9866943,1.9832554,10.6430054,3.9668179,13.9683838,5.9503813c4.656311,2.6447487,7.9822998,5.2894993,9.9778442,8.2649975
	c1.9956055,2.6447506,2.9933472,6.2811279,2.9933472,10.9094429v15.5377541c0,6.9423141-2.6607666,10.5786896-7.6496582,10.5786896
	c-2.6601562,0-6.9838867-1.3223724-12.6380005-3.9671249c-18.9579468-8.5951309-40.2434692-12.8930016-63.8571167-12.8930016
	c-18.9579468,0-33.9241333,2.9754982-44.2346191,9.2566261c-10.3104248,6.2811279-15.631958,15.8681908-15.631958,29.4223824
	c0,9.2566299,3.3259277,17.1908798,9.9778442,23.4720078s18.9573364,12.5622559,36.5848999,18.1825027l47.2279663,14.876564
	c23.946228,7.6035004,41.2412109,18.1825104,51.5510254,31.7366943
	c10.3104858,13.5541992,15.2994385,29.0919495,15.2994385,46.2825165c0,14.2153778-2.9934082,27.1083832-8.647522,38.3485565
	c-5.9866943,11.2398987-13.9683838,21.1577148-24.2788696,29.0919495
	c-10.3104248,8.2647095-22.6164551,14.2153931-36.9174805,18.51297
	C873.8192139,308.4407654,858.1872559,310.7547607,841.2248535,310.7547607z M413.8476562,301.8288879
	c-5.9867249,0-9.9778748-0.9919434-12.6386414-3.3059387c-2.6601562-1.983551-4.9883118-6.6118774-6.9838867-12.8930054
	L316.0664062,30.0835724c-1.995575-6.6118755-2.9933472-10.909441-2.9933472-13.223444
	c0-5.2895002,2.6607666-8.2646904,7.9816589-8.2646904h32.59375c6.3193359,0,10.6430664,0.9916277,12.9712219,3.3056307
	c2.6607666,1.9838705,4.6563416,6.6118746,6.6519165,12.8930025l55.8754272,218.8509369l51.883667-218.8509369
	c1.6629944-6.6115665,3.6585693-10.909132,6.3186951-12.8930025c2.6607666-1.9832554,7.3171082-3.3056307,13.303833-3.3056307
	h26.6070251c6.3193359,0,10.6430664,0.9916277,13.303833,3.3059378c2.6607666,1.9835634,4.9888916,6.6115675,6.3192749,12.8930044
	l52.5494995,221.4953613l57.5377808-221.4953613c1.9949951-6.6118755,4.3231201-10.909441,6.6513062-12.8930044
	c2.6607666-1.9835625,6.9844971-3.3059378,12.9712524-3.3059378h30.9307251c5.3215332,0,8.3148804,2.6447506,8.3148804,8.2646904
	c0,1.6528149-0.3325806,3.3059387-0.6651611,5.2895012s-0.9978027,4.6283131-2.328186,8.2646904l-80.1536865,255.5460663
	c-1.9955444,6.6118774-4.3237305,10.9097595-6.9844971,12.8930054c-2.6607666,1.983551-6.9844971,3.3059387-12.6386108,3.3059387
	h-28.6026001c-6.3193359,0-10.6430664-0.9916382-13.303833-3.3059387
	c-2.6601562-2.3139954-4.9882812-6.6115723-6.3186646-13.2234497L513.2918701,72.3992691l-51.2184753,212.8999329
	c-1.6629944,6.6118774-3.6585693,10.9094543-6.3193359,13.2237549c-2.6607666,2.3139954-7.3171082,3.3059387-13.3038025,3.3059387
	H413.8476562z M146.7783813,266.125061c10.975647,0,22.2832794-1.983551,34.2567139-5.9506836
	s22.6158752-11.2401886,31.5959625-21.1576843c5.3215332-6.2814331,9.3126678-13.2237549,11.3082428-21.1576996
	c1.995575-7.9342499,3.3253479-17.5213165,3.3253479-28.7615051v-13.8846283
	c-9.6446533-2.3143158-19.9551239-4.2978821-30.598175-5.6202545c-10.6424408-1.3223724-20.9529114-1.9835663-31.2633667-1.9835663
	c-22.2832794,0-38.5804596,4.2978821-49.5554962,13.2237549c-10.9756546,8.9258881-16.2971802,21.4884491-16.2971802,38.0178223
	c0,15.5377655,3.9911423,27.1083832,12.3060303,35.0426331C119.8387527,262.157959,131.4789734,266.125061,146.7783813,266.125061z
	 M281.8096924,215.8754272c0,12.2318268,1.3303833,22.1493225,3.6585388,29.4223938
	c2.6607666,7.273056,5.9867249,15.2073059,10.6424561,23.8024292c1.6629639,2.6447754,2.3281555,5.2895203,2.3281555,7.6035156
	c0,3.3059387-1.9949341,6.6118774-6.3186951,9.9178162l-20.9535217,13.8849487
	c-2.9933472,1.9832458-5.9867249,2.9751892-8.6468506,2.9751892c-3.3259583,0-6.6519165-1.652832-9.9778748-4.6283264
	c-4.6563416-4.9587402-8.6474762-10.2482605-11.9734344-15.5377502c-3.3259583-5.6199341-6.6519165-11.901062-10.3104706-19.5048828
	c-25.9418335,30.4143066-58.5355682,45.6216431-97.7812347,45.6216431c-27.9374008,0-50.2206879-7.9342651-66.517868-23.8027649
	c-16.2965622-15.8681946-24.6114502-37.0258789-24.6114502-63.4730835c0-28.1003113,9.9778671-50.9108276,30.2655792-68.1016998
	c20.2877121-17.190567,47.2279434-25.7860107,81.4846649-25.7860107c11.3076324,0,22.9484711,0.9919434,35.2545166,2.6447601
	c12.3054199,1.6531219,24.944046,4.2978668,38.2472534,7.273056v-24.133194
	c0-25.1248169-5.3215332-42.6461334-15.6313782-52.8943863c-10.6430511-10.2482529-28.6026001-15.2070045-54.2124481-15.2070045
	c-11.6402283,0-23.613678,1.3223724-35.9197083,4.2975616c-12.3054123,2.975193-24.2788544,6.6118774-35.9197006,11.2401886
	c-5.3209076,2.314003-9.3120575,3.6363792-11.6402206,4.2975655c-2.3281708,0.6611862-3.9911499,0.9916306-5.3215332,0.9916306
	c-4.6563377,0-6.9845047-3.3059387-6.9845047-10.2482567V40.3318253c0-5.2895012,0.6651917-9.2566261,2.328167-11.5706272
	c1.6629829-2.314003,4.6563377-4.6283131,9.3126793-6.9423161C84.25103,15.8681936,98.220047,10.909441,114.5172272,6.9423156
	c16.2965698-4.2978735,33.5915222-6.2811279,51.883667-6.2811279c39.5782471,0,68.513443,8.9258785,87.1381836,26.7776337
	c18.2927399,17.8520641,27.605423,44.9604492,27.605423,81.3251495v107.1114578H281.8096924z"/>
<path fill-rule="evenodd" clip-rule="evenodd" fill="#FF9900" d="M904.0848389,471.4245911
	c-109.4221191,80.3332214-268.3996582,122.9793396-405.0939636,122.9793396
	c-191.5713196,0-364.1853027-70.4160156-494.5609131-187.4446716c-10.309845-9.2566223-0.9977868-21.8191833,11.3082476-14.5461426
	c141.0180359,81.3251648,314.9624023,130.5831604,494.8928833,130.5831604
	c121.3955078,0,254.763855-25.1248169,377.4891357-76.6968384
	C906.4129639,438.0347595,922.0443726,458.2008362,904.0848389,471.4245911z"/>
<path fill-rule="evenodd" clip-rule="evenodd" fill="#FF9900" d="M949.6491699,419.8522644
	c-13.9683838-17.8517761-92.4597168-8.5951233-128.046814-4.2975769
	c-10.6424561,1.3223877-12.3054199-7.9342346-2.6607666-14.8765564
	c62.5267334-43.6377563,165.296875-31.0755005,177.2703247-16.5293884
	c11.9734497,14.8765564-3.3259277,117.0289612-61.8615112,165.9562378
	c-8.9801025,7.6035156-17.6275635,3.6363525-13.6364136-6.2814331
	C934.0178223,511.0952148,963.6181641,437.3735657,949.6491699,419.8522644z"/>
</svg>
