<?xml version="1.0" encoding="utf-8"?>
<!-- Generator: Adobe Illustrator 28.0.0, SVG Export Plug-In . SVG Version: 6.00 Build 0)  -->
<svg version="1.1" id="Слой_1" xmlns="http://www.w3.org/2000/svg" xmlns:xlink="http://www.w3.org/1999/xlink" x="0px" y="0px"
	 viewBox="0 0 1000 789.3119507" style="enable-background:new 0 0 1000 789.3119507;" xml:space="preserve">
<style type="text/css">
	.st0{fill:#2560FF;}
</style>
<g>
	<path class="st0" d="M983.7431641,324.2830811c-24.5324707-16.4924622-88.9415283-23.5606689-135.7683105-10.926239
		c-2.5327759-46.6501465-26.5941162-85.9669952-70.593689-120.247757l-16.2862549-10.9262543l-10.8673706,16.4041138
		c-21.3518066,32.3959045-30.3343506,75.5413818-27.1536255,114.7993469
		c2.5032959,24.1791382,10.9262085,51.3622131,27.1536255,71.0648193
		c-60.9631958,35.3704834-117.1553955,27.3304138-365.9854431,27.3304138H0.0855028
		c-1.1191314,56.1921387,7.9222765,164.2767029,76.6310272,252.2463074
		c7.5983124,9.718811,15.9034576,19.1136475,24.9448547,28.1844482
		c55.8976822,55.956543,140.303772,96.9816284,266.5594482,97.0994263
		c192.6083984,0.1766968,357.62146-103.9320068,458.0192871-355.6776733
		c33.0438232,0.5300903,120.2183228,5.9195862,162.8925171-76.5427246C990.1634521,355.7071228,1000,335.2388,1000,335.2388
		l-16.2568359-10.9262695V324.2830811z M250.8003998,272.9208374h-108.02565v108.0256653h108.02565V272.9208374z
		 M390.3678894,272.9208374H282.3422241v108.0256653h108.0256653V272.9208374z M529.9353638,272.9208374H421.9096985v108.0256653
		h108.0256653V272.9208374z M669.5028076,272.9208374H561.4771729v108.0256653h108.0256348V272.9208374z M111.2329102,272.9208374
		H3.2072937v108.0256653h108.0256195V272.9208374z M250.8003998,136.445694h-108.02565v108.02565h108.02565V136.445694z
		 M390.3678894,136.445694H282.3422241v108.02565h108.0256653V136.445694z M529.9353638,136.445694H421.9096985v108.02565
		h108.0256653V136.445694z M529.9353638,0H421.9096985v108.0256424h108.0256653V0z"/>
</g>
</svg>
