<?xml version="1.0" encoding="utf-8"?>
<!-- Generator: Adobe Illustrator 28.0.0, SVG Export Plug-In . SVG Version: 6.00 Build 0)  -->
<svg version="1.1" id="Слой_1" xmlns="http://www.w3.org/2000/svg" xmlns:xlink="http://www.w3.org/1999/xlink" x="0px" y="0px"
	 viewBox="0 0 1000 968.6332397" enable-background="new 0 0 1000 968.6332397" xml:space="preserve">
<path fill="#000001" d="M422.8510437,708.0082397c-128.9061584-15.6255493-219.7265472-108.3989868-219.7265472-228.5163879
	c0-48.8275452,17.5785522-101.5622253,46.8755188-136.7183533c-12.6959381-32.226532-10.7428589-100.5857239,3.9061279-128.9061432
	c39.0622406-4.8826599,91.7969208,15.6244965,123.0469208,43.94487
	c37.1091919-11.7183533,76.1714478-17.5775299,124.023468-17.5775299c47.8510437,0,86.9132996,5.8591766,122.0693665,16.6010284
	c30.2735596-27.3438721,83.9847412-47.8510284,123.0469971-42.9683685
	c13.6724243,26.3673401,15.6254272,94.7265167,2.9296265,127.9296112
	c31.25,37.1091919,47.8519897,86.9142456,47.8519897,137.6948853c0,120.1174011-90.8203735,210.9377747-221.6796265,227.5398254
	c33.203064,21.4836426,55.6643066,68.3591309,55.6643066,122.0703735v101.5612793
	c0,29.2958374,24.413269,45.8979492,53.7102661,34.1836548C861.3265381,897.4591675,1000,720.703064,1000,501.953064
	C1000,225.5857086,775.3898315,0,499.0224915,0C222.6561432,0,0,225.5857086,0,501.953064
	C0,718.75,137.6948853,898.4387817,323.2418518,965.8164062C349.6091919,975.581665,375,958.0102539,375,931.6429443v-78.1276245
	c-13.6724548,5.8623047-31.25,9.7703857-46.8754883,9.7703857c-64.4530945,0-102.5388031-35.1601562-129.8826599-100.5907593
	C187.5,736.3286133,175.7805939,720.703064,153.3193817,717.7734375
	c-11.7183533-0.9764404-15.6244965-5.8591309-15.6244965-11.7183228c0-11.7193604,19.5316467-20.5081177,39.0622711-20.5081177
	c28.3203888,0,52.7346954,17.5785522,78.1255035,53.7112427c19.5306091,28.3203735,40.0387573,41.0151978,64.453064,41.0151978
	c24.4142761,0,40.0387878-8.7886963,62.5-31.25C398.4367371,732.4214478,411.1326599,717.7734375,422.8510437,708.0082397z"/>
</svg>
